# Blender v2.79 (sub 0) OBJ File: ''
# www.blender.org
o Plane_Plane.001
v 0.000000 0.000000 0.000000
v 0.000000 0.000000 -10.000000
v 10.000000 0.000000 0.000000
v 10.000000 0.000000 -10.000000
v 0.000000 0.000000 -5.000000
v 15.000000 0.000000 0.000000
v 0.000000 0.000000 -15.000000
v 5.000000 0.000000 0.000000
v 10.000000 0.000000 -15.000000
v 10.000000 0.000000 -5.000000
v 5.000000 0.000000 -10.000000
v 15.000000 0.000000 -10.000000
v 15.000000 0.000000 -5.000000
v 5.000000 0.000000 -5.000000
v 5.000000 0.000000 -15.000000
v 15.000000 0.000000 -15.000000
v 0.000000 0.000000 -2.500000
v 17.500000 0.000000 0.000000
v 0.000000 0.000000 -12.500000
v 7.500000 0.000000 0.000000
v 10.000000 0.000000 -17.500000
v 10.000000 0.000000 -7.500000
v 2.500000 0.000000 -10.000000
v 12.500000 0.000000 -10.000000
v 0.000000 0.000000 -7.500000
v 12.500000 0.000000 0.000000
v 0.000000 0.000000 -17.500000
v 2.500000 0.000000 0.000000
v 10.000000 0.000000 -12.500000
v 10.000000 0.000000 -2.500000
v 7.500000 0.000000 -10.000000
v 17.500000 0.000000 -10.000000
v 15.000000 0.000000 -7.500000
v 15.000000 0.000000 -2.500000
v 12.500000 0.000000 -5.000000
v 17.500000 0.000000 -5.000000
v 5.000000 0.000000 -7.500000
v 5.000000 0.000000 -2.500000
v 2.500000 0.000000 -5.000000
v 7.500000 0.000000 -5.000000
v 5.000000 0.000000 -17.500000
v 5.000000 0.000000 -12.500000
v 2.500000 0.000000 -15.000000
v 7.500000 0.000000 -15.000000
v 15.000000 0.000000 -17.500000
v 15.000000 0.000000 -12.500000
v 12.500000 0.000000 -15.000000
v 17.500000 0.000000 -15.000000
v 17.500000 0.000000 -12.500000
v 12.500000 0.000000 -12.500000
v 12.500000 0.000000 -17.500000
v 7.500000 0.000000 -12.500000
v 2.500000 0.000000 -12.500000
v 2.500000 0.000000 -17.500000
v 7.500000 0.000000 -2.500000
v 2.500000 0.000000 -2.500000
v 2.500000 0.000000 -7.500000
v 17.500000 0.000000 -2.500000
v 12.500000 0.000000 -2.500000
v 12.500000 0.000000 -7.500000
v 17.500000 0.000000 -7.500000
v 7.500000 0.000000 -7.500000
v 7.500000 0.000000 -17.500000
v 17.500000 0.000000 -17.500000
vt 0.999307 0.572122
vt 0.857836 0.713593
vt 0.857836 0.572122
vt 0.429265 0.714979
vt 0.570735 0.856450
vt 0.429265 0.856450
vt 0.856450 0.000693
vt 0.714979 0.142164
vt 0.714979 0.000693
vt 0.429265 0.429265
vt 0.570735 0.570735
vt 0.429265 0.570735
vt 0.427878 0.000693
vt 0.286407 0.142164
vt 0.286407 0.000693
vt 0.427878 0.286408
vt 0.286407 0.427878
vt 0.286407 0.286408
vt 0.714979 0.286407
vt 0.856449 0.427878
vt 0.714979 0.427878
vt 0.286407 0.572122
vt 0.427878 0.713593
vt 0.286407 0.713593
vt 0.285021 0.572122
vt 0.143550 0.713593
vt 0.143550 0.572122
vt 0.999307 0.714979
vt 0.857836 0.856450
vt 0.857836 0.714979
vt 0.570735 0.857836
vt 0.429265 0.999307
vt 0.429265 0.857836
vt 0.000693 0.429265
vt 0.142164 0.570735
vt 0.000693 0.570735
vt 0.572122 0.714979
vt 0.713592 0.856450
vt 0.572122 0.856450
vt 0.000693 0.714979
vt 0.142164 0.856450
vt 0.000693 0.856450
vt 0.142164 0.143550
vt 0.000693 0.285021
vt 0.000693 0.143550
vt 0.142164 0.286408
vt 0.000693 0.427878
vt 0.000693 0.286408
vt 0.429265 0.143550
vt 0.570735 0.285021
vt 0.429265 0.285021
vt 0.429265 0.286408
vt 0.570735 0.427878
vt 0.429265 0.427878
vt 0.286407 0.714979
vt 0.427878 0.856450
vt 0.286407 0.856450
vt 0.572122 0.572122
vt 0.713592 0.713593
vt 0.572122 0.713593
vt 0.286407 0.429265
vt 0.427878 0.570735
vt 0.286407 0.570735
vt 0.143550 0.143550
vt 0.285021 0.285021
vt 0.143550 0.285021
vt 0.285021 0.286408
vt 0.143550 0.427878
vt 0.143550 0.286408
vt 0.285021 0.714979
vt 0.143550 0.856450
vt 0.143550 0.714979
vt 0.713592 0.429265
vt 0.572122 0.570735
vt 0.572122 0.429265
vt 0.000693 0.000693
vt 0.142164 0.142164
vt 0.000693 0.142164
vt 0.999307 0.429265
vt 0.857836 0.570735
vt 0.857836 0.429265
vt 0.427878 0.857836
vt 0.286407 0.999307
vt 0.286408 0.857836
vt 0.999307 0.286407
vt 0.857836 0.427878
vt 0.857836 0.286407
vt 0.285021 0.857836
vt 0.143550 0.999307
vt 0.143550 0.857836
vt 0.999307 0.143550
vt 0.857836 0.285021
vt 0.857836 0.143550
vt 0.142164 0.857836
vt 0.000693 0.999307
vt 0.000693 0.857836
vt 0.999307 0.000693
vt 0.857836 0.142164
vt 0.857836 0.000693
vt 0.999307 0.857836
vt 0.857836 0.999307
vt 0.857836 0.857836
vt 0.856450 0.857836
vt 0.714979 0.999307
vt 0.714979 0.857836
vt 0.713592 0.857836
vt 0.572122 0.999307
vt 0.572122 0.857836
vt 0.856450 0.714979
vt 0.714979 0.856450
vt 0.714979 0.714979
vt 0.143550 0.000693
vt 0.285021 0.142164
vt 0.143550 0.142164
vt 0.714979 0.572122
vt 0.856449 0.713593
vt 0.714979 0.713593
vt 0.714979 0.143550
vt 0.856449 0.285021
vt 0.714979 0.285021
vt 0.572122 0.000693
vt 0.713592 0.142164
vt 0.572122 0.142164
vt 0.286407 0.143550
vt 0.427878 0.285021
vt 0.286407 0.285021
vt 0.429265 0.000693
vt 0.570735 0.142164
vt 0.429265 0.142164
vt 0.714979 0.429265
vt 0.856449 0.570735
vt 0.714979 0.570735
vt 0.429265 0.572122
vt 0.570735 0.713593
vt 0.429265 0.713593
vt 0.572122 0.286408
vt 0.713592 0.427878
vt 0.572122 0.427878
vt 0.142164 0.572122
vt 0.000693 0.713593
vt 0.000693 0.572122
vt 0.713592 0.143550
vt 0.572122 0.285021
vt 0.572122 0.143550
vt 0.285021 0.429265
vt 0.143550 0.570735
vt 0.143550 0.429265
vt 0.999307 0.713593
vt 0.570735 0.714979
vt 0.856450 0.142164
vt 0.570735 0.429265
vt 0.427878 0.142164
vt 0.427878 0.427878
vt 0.856449 0.286407
vt 0.427878 0.572122
vt 0.285021 0.713593
vt 0.999307 0.856450
vt 0.570735 0.999307
vt 0.142164 0.429265
vt 0.713592 0.714979
vt 0.142164 0.714979
vt 0.142164 0.285021
vt 0.142164 0.427878
vt 0.570735 0.143550
vt 0.570735 0.286408
vt 0.427878 0.714979
vt 0.713592 0.572122
vt 0.427878 0.429265
vt 0.285021 0.143550
vt 0.285021 0.427878
vt 0.285021 0.856450
vt 0.713592 0.570735
vt 0.142164 0.000693
vt 0.999307 0.570735
vt 0.427878 0.999307
vt 0.999307 0.427878
vt 0.285021 0.999307
vt 0.999307 0.285021
vt 0.142164 0.999307
vt 0.999307 0.142164
vt 0.999307 0.999307
vt 0.856450 0.999307
vt 0.713592 0.999307
vt 0.856450 0.856450
vt 0.285021 0.000693
vt 0.856449 0.572122
vt 0.856449 0.143550
vt 0.713592 0.000693
vt 0.427878 0.143550
vt 0.570735 0.000693
vt 0.856449 0.429265
vt 0.570735 0.572122
vt 0.713592 0.286408
vt 0.142164 0.713593
vt 0.713592 0.285021
vt 0.285021 0.570735
vn 0.0000 1.0000 0.0000
s off
f 22/1/1 31/2/1 62/3/1
f 33/4/1 24/5/1 60/6/1
f 34/7/1 35/8/1 59/9/1
f 37/10/1 23/11/1 57/12/1
f 38/13/1 39/14/1 56/15/1
f 30/16/1 40/17/1 55/18/1
f 42/19/1 43/20/1 53/21/1
f 29/22/1 44/23/1 52/24/1
f 46/25/1 47/26/1 50/27/1
f 49/28/1 16/29/1 46/30/1
f 32/31/1 46/32/1 12/33/1
f 50/34/1 9/35/1 29/36/1
f 24/37/1 29/38/1 4/39/1
f 12/40/1 50/41/1 24/42/1
f 47/43/1 21/44/1 9/45/1
f 16/46/1 51/47/1 47/48/1
f 52/49/1 15/50/1 42/51/1
f 31/52/1 42/53/1 11/54/1
f 4/55/1 52/56/1 31/57/1
f 53/58/1 7/59/1 19/60/1
f 23/61/1 19/62/1 2/63/1
f 11/64/1 53/65/1 23/66/1
f 43/67/1 27/68/1 7/69/1
f 15/70/1 54/71/1 43/72/1
f 55/73/1 14/74/1 38/75/1
f 20/76/1 38/77/1 8/78/1
f 3/79/1 55/80/1 20/81/1
f 56/82/1 5/83/1 17/84/1
f 28/85/1 17/86/1 1/87/1
f 8/88/1 56/89/1 28/90/1
f 57/91/1 2/92/1 25/93/1
f 39/94/1 25/95/1 5/96/1
f 14/97/1 57/98/1 39/99/1
f 58/100/1 13/101/1 34/102/1
f 18/103/1 34/104/1 6/105/1
f 59/106/1 10/107/1 30/108/1
f 26/109/1 30/110/1 3/111/1
f 6/112/1 59/113/1 26/114/1
f 60/115/1 4/116/1 22/117/1
f 35/118/1 22/119/1 10/120/1
f 13/121/1 60/122/1 35/123/1
f 61/124/1 12/125/1 33/126/1
f 36/127/1 33/128/1 13/129/1
f 62/130/1 11/131/1 37/132/1
f 40/133/1 37/134/1 14/135/1
f 10/136/1 62/137/1 40/138/1
f 44/139/1 41/140/1 15/141/1
f 9/142/1 63/143/1 44/144/1
f 48/145/1 45/146/1 16/147/1
f 22/1/1 4/148/1 31/2/1
f 33/4/1 12/149/1 24/5/1
f 34/7/1 13/150/1 35/8/1
f 37/10/1 11/151/1 23/11/1
f 38/13/1 14/152/1 39/14/1
f 30/16/1 10/153/1 40/17/1
f 42/19/1 15/154/1 43/20/1
f 29/22/1 9/155/1 44/23/1
f 46/25/1 16/156/1 47/26/1
f 49/28/1 48/157/1 16/29/1
f 32/31/1 49/158/1 46/32/1
f 50/34/1 47/159/1 9/35/1
f 24/37/1 50/160/1 29/38/1
f 12/40/1 46/161/1 50/41/1
f 47/43/1 51/162/1 21/44/1
f 16/46/1 45/163/1 51/47/1
f 52/49/1 44/164/1 15/50/1
f 31/52/1 52/165/1 42/53/1
f 4/55/1 29/166/1 52/56/1
f 53/58/1 43/167/1 7/59/1
f 23/61/1 53/168/1 19/62/1
f 11/64/1 42/169/1 53/65/1
f 43/67/1 54/170/1 27/68/1
f 15/70/1 41/171/1 54/71/1
f 55/73/1 40/172/1 14/74/1
f 20/76/1 55/173/1 38/77/1
f 3/79/1 30/174/1 55/80/1
f 56/82/1 39/175/1 5/83/1
f 28/85/1 56/176/1 17/86/1
f 8/88/1 38/177/1 56/89/1
f 57/91/1 23/178/1 2/92/1
f 39/94/1 57/179/1 25/95/1
f 14/97/1 37/180/1 57/98/1
f 58/100/1 36/181/1 13/101/1
f 18/103/1 58/182/1 34/104/1
f 59/106/1 35/183/1 10/107/1
f 26/109/1 59/184/1 30/110/1
f 6/112/1 34/185/1 59/113/1
f 60/115/1 24/186/1 4/116/1
f 35/118/1 60/187/1 22/119/1
f 13/121/1 33/188/1 60/122/1
f 61/124/1 32/189/1 12/125/1
f 36/127/1 61/190/1 33/128/1
f 62/130/1 31/191/1 11/131/1
f 40/133/1 62/192/1 37/134/1
f 10/136/1 22/193/1 62/137/1
f 44/139/1 63/194/1 41/140/1
f 9/142/1 21/195/1 63/143/1
f 48/145/1 64/196/1 45/146/1
